<svg width="31" height="28" viewBox="0 0 31 28" fill="none" xmlns="http://www.w3.org/2000/svg">
<path d="M30.4833 19H25.3167C25.0309 19 24.8 19.224 24.8 19.5C24.8 19.776 25.0309 20 25.3167 20H29.9666V25.5C29.9666 26.327 29.2712 27 28.4167 27H2.58335C1.72879 27 1.03335 26.327 1.03335 25.5V20H5.68334C5.96852 20 6.19999 19.776 6.19999 19.5C6.19999 19.224 5.96852 19 5.68334 19H0.516645C0.23147 19 0 19.224 0 19.5V25.5C0 26.8785 1.15886 28 2.58335 28H28.4167C29.8411 28 31 26.8785 31 25.5V19.5C30.9999 19.224 30.769 19 30.4833 19Z" fill="#AC9881"/>
<path d="M3.067 2.817C3.15953 2.93447 3.32752 3 3.50049 3C3.58499 3 3.67101 2.98426 3.74999 2.95098C3.98901 2.84998 4.07098 2.62599 3.93299 2.45105L2.933 1.18298C2.79448 1.00805 2.48949 0.948048 2.25001 1.04905C2.01099 1.15043 1.92902 1.37404 2.06701 1.54893L3.067 2.817Z" fill="#AC9881"/>
<path d="M7.25002 2.95098C7.329 2.9843 7.41449 3 7.49951 3C7.67254 3 7.84052 2.93451 7.93298 2.817L8.93299 1.54893C9.07098 1.374 8.98901 1.15039 8.75001 1.04905C8.51001 0.948048 8.20503 1.00805 8.06704 1.18298L7.06703 2.45105C6.92899 2.62637 7.01102 2.84998 7.25002 2.95098Z" fill="#AC9881"/>
<path d="M6.5 3C6.77599 3 7 2.776 7 2.50002V0.49998C7 0.224004 6.77599 0 6.5 0C6.22401 0 6 0.224004 6 0.49998V2.49996C6 2.776 6.22401 3 6.5 3Z" fill="#AC9881"/>
<path d="M17.8925 11.5459C17.1436 11.1838 16.3383 11 15.5 11C12.4672 11 10 13.4672 10 16.5C10 19.5328 12.4672 22 15.5 22C18.5328 22 21 19.5328 21 16.5C21 16.1897 20.9739 15.8789 20.923 15.576C20.8803 15.3267 20.6429 15.1575 20.395 15.2006C20.1452 15.2428 19.9765 15.4793 20.0187 15.7286C20.0618 15.9816 20.0833 16.241 20.0833 16.5C20.0833 19.0272 18.0273 21.0833 15.5 21.0833C12.9727 21.0833 10.9167 19.0272 10.9167 16.5C10.9167 13.9728 12.9728 11.9167 15.5 11.9167C16.1989 11.9167 16.8695 12.0698 17.4933 12.3713C17.7201 12.4809 17.9947 12.3865 18.1051 12.1582C18.2156 11.9304 18.1203 11.6563 17.8925 11.5459Z" fill="#AC9881"/>
<path d="M7 16.5C7 21.1867 10.6873 25 15.2191 25C18.6973 25 21.8124 22.7226 22.9708 19.3332C23.0648 19.0569 22.9245 18.7531 22.6569 18.6553C22.3898 18.5575 22.096 18.7026 22.0014 18.9793C20.9879 21.9453 18.2627 23.9375 15.2191 23.9375C11.2534 23.9375 8.02735 20.6013 8.02735 16.5C8.02735 12.3987 11.2534 9.06252 15.2191 9.06252C16.79 9.06252 18.2823 9.57675 19.5347 10.5495C19.7622 10.7264 20.0844 10.6786 20.2539 10.4443C20.4244 10.2095 20.3787 9.87639 20.1517 9.70052C18.72 8.58807 17.014 8 15.2192 8C10.6873 8 7 11.8134 7 16.5Z" fill="#AC9881"/>
<path d="M20.5 5H13.5C13.224 5 13 5.224 13 5.49997C13 5.77594 13.224 6 13.5 6H20.5C20.7765 6 21 5.776 21 5.50003C21 5.22406 20.7765 5 20.5 5Z" fill="#AC9881"/>
<path d="M16.4286 13C16.1916 13 16 13.192 16 13.4286C16 13.6651 16.1916 13.8571 16.4286 13.8571C17.3736 13.8571 18.1429 14.626 18.1429 15.5714C18.1429 15.808 18.3344 16 18.5714 16C18.8084 16 19 15.808 19 15.5714C19.0001 14.1533 17.8463 13 16.4286 13Z" fill="#AC9881"/>
<path d="M28.4166 6.21429H25.3166C24.6233 6.21429 24.2306 5.44393 24.2286 5.43909L23.7165 4.37731C23.2748 3.41196 22.6718 3 21.7 3H13.4334C12.4238 3 11.8379 3.40179 11.421 4.36771L10.9058 5.43595C10.9022 5.44399 10.51 6.21435 9.81671 6.21435H8.26671V5.67866C8.26671 5.38297 8.03524 5.14296 7.75006 5.14296H4.65C4.36482 5.14296 4.13335 5.38297 4.13335 5.67866V6.21429H2.58335C1.15887 6.21429 0 7.41588 0 8.89289V17.4643C0 17.76 0.231471 18 0.516647 18C0.801822 18 1.03329 17.76 1.03329 17.4643V8.89289C1.03329 8.00682 1.72873 7.28574 2.58329 7.28574H4.65C4.93518 7.28574 5.16665 7.04574 5.16665 6.75005V6.21429H7.23329V6.74998C7.23329 7.04567 7.46476 7.28568 7.74994 7.28568H9.81659C11.1537 7.28568 11.8016 5.97372 11.8285 5.91797L12.3545 4.82618C12.634 4.18062 12.8691 4.07139 13.4333 4.07139H21.7C22.2064 4.07139 22.4833 4.18226 22.7876 4.84658L23.3043 5.91804C23.3316 5.97372 23.9795 7.28574 25.3166 7.28574H28.4166C29.2712 7.28574 29.9666 8.00682 29.9666 8.89289V17.4643C29.9666 17.76 30.1976 18 30.4833 18C30.769 18 31 17.76 31 17.4643V8.89289C31 7.41588 29.8411 6.21429 28.4166 6.21429Z" fill="#AC9881"/>
<path fill-rule="evenodd" clip-rule="evenodd" d="M23.5 17C23.2845 17 23.0935 16.8625 23.0255 16.658L22.1045 13.8955L19.3415 12.9745C19.1375 12.906 19 12.7155 19 12.5C19 12.2845 19.1375 12.094 19.3415 12.0255L22.1045 11.1045L23.0255 8.34201C23.0934 8.13752 23.2845 8 23.5 8C23.7155 8 23.906 8.13752 23.9745 8.34201L24.8954 11.1045L27.658 12.0255C27.8625 12.094 28 12.2845 28 12.5C28 12.7155 27.8625 12.906 27.658 12.9745L24.8954 13.8955L23.9745 16.658C23.906 16.8625 23.7155 17 23.5 17ZM22.9745 11.6579C22.925 11.8075 22.8074 11.9245 22.658 11.9745L21.0809 12.4999L22.6579 13.0255C22.8074 13.0755 22.9249 13.1925 22.9744 13.342L23.5 14.919L24.0255 13.3421C24.075 13.1925 24.1925 13.0755 24.3415 13.0255L25.919 12.5L24.3415 11.9745C24.1925 11.9244 24.075 11.8075 24.0255 11.6579L23.5 10.081L22.9745 11.6579Z" fill="#AC9881"/>
</svg>
